<svg xmlns="http://www.w3.org/2000/svg" viewBox="0 0 1026 363">
<defs><linearGradient id="ax" x1="0" y1="0" x2="1" y2="0"><stop offset="0" stop-color="#b45309"/><stop offset="1" stop-color="#8a3d08"/></linearGradient></defs>

  <g transform="translate(20.00 20.00) scale(0.31 0.31)"><path fill="#faf9f6" d="M21 0L278 710L381 710L638 0L554 0L481 207L178 207L105 0ZM204 283L455 283L329 642Z"/></g>
  <g transform="translate(228.53 240.10) scale(0.31 -0.31)"><path fill="#faf9f6" d="M16 0L253 356L19 710L110 710L303 417L494 710L584 710L350 358L589 0L497 0L302 297L106 0Z"/></g>
  <g transform="translate(417.21 240.10) scale(0.31 -0.31)"><path fill="#faf9f6" d="M93 0L93 710L170 710L170 0Z"/></g>
  <g transform="translate(498.74 240.10) scale(0.31 -0.31)"><path fill="#faf9f6" d="M367 -16Q267 -16 195 28.5Q123 73 84.5 156Q46 239 46 354Q46 469 84.5 552.5Q123 636 195 681Q267 726 367 726Q468 726 540 681Q612 636 650.5 552.5Q689 469 689 354Q689 239 650.5 156Q612 73 540 28.5Q468 -16 367 -16ZM367 59Q443 59 497 94.5Q551 130 579.5 196Q608 262 608 354Q608 446 579.5 512.5Q551 579 497 615Q443 651 367 651Q292 651 238 615Q184 579 155.5 512.5Q127 446 127 354Q127 262 155.5 196Q184 130 238 94.5Q292 59 367 59Z"/></g>
  <g transform="translate(735.01 240.10) scale(0.31 -0.31)"><path fill="#faf9f6" d="M93 0L93 710L202 710L437 84L671 710L780 710L780 0L703 0L703 572L487 0L385 0L170 572L170 0Z"/></g>
  <g transform="translate(20.00 342.90) scale(0.08 -0.08)"><path fill="#faf9f6" d="M89 0L89 710L542 710L542 619L136 619L186 670L186 344L136 392L524 392L524 302L136 302L186 350L186 0Z"/></g>
  <g transform="translate(91.39 342.90) scale(0.08 -0.08)"><path fill="#faf9f6" d="M372 -16Q270 -16 196.5 28.5Q123 73 84 156Q45 239 45 354Q45 469 84 552.5Q123 636 196.5 681Q270 726 372 726Q475 726 548.5 681Q622 636 661.5 552.5Q701 469 701 354Q701 239 661.5 156Q622 73 548.5 28.5Q475 -16 372 -16ZM372 75Q444 75 494.5 108.5Q545 142 572.5 204Q600 266 600 354Q600 442 572.5 504.5Q545 567 494.5 601Q444 635 372 635Q301 635 250.5 601Q200 567 173 504.5Q146 442 146 354Q146 266 173 204Q200 142 250.5 108.5Q301 75 372 75Z"/></g>
  <g transform="translate(175.00 342.90) scale(0.08 -0.08)"><path fill="#faf9f6" d="M346 -16Q263 -16 201.5 16Q140 48 107 108Q74 168 74 249L74 710L171 710L171 249Q171 166 216.5 120.5Q262 75 346 75Q429 75 474.5 120.5Q520 166 520 249L520 710L617 710L617 249Q617 168 584 108Q551 48 490 16Q429 -16 346 -16Z"/></g>
  <g transform="translate(255.51 342.90) scale(0.08 -0.08)"><path fill="#faf9f6" d="M89 0L89 710L219 710L558 108L558 710L655 710L655 0L520 0L186 589L186 0Z"/></g>
  <g transform="translate(337.53 342.90) scale(0.08 -0.08)"><path fill="#faf9f6" d="M89 0L89 710L313 710Q479 710 568 617.5Q657 525 657 354Q657 184 569.5 92Q482 0 319 0ZM186 91L313 91Q434 91 495 156.5Q556 222 556 354Q556 488 495 553.5Q434 619 313 619L186 619Z"/></g>
  <g transform="translate(414.70 342.90) scale(0.08 -0.08)"><path fill="#faf9f6" d="M20 0L276 710L403 710L659 0L554 0L486 193L192 193L124 0ZM224 284L455 284L339 621Z"/></g>
  <g transform="translate(485.63 342.90) scale(0.08 -0.08)"><path fill="#faf9f6" d="M231 0L231 619L12 619L12 710L548 710L548 619L329 619L329 0Z"/></g>
  <g transform="translate(552.18 342.90) scale(0.08 -0.08)"><path fill="#faf9f6" d="M89 0L89 710L186 710L186 0Z"/></g>
  <g transform="translate(597.03 342.90) scale(0.08 -0.08)"><path fill="#faf9f6" d="M372 -16Q270 -16 196.5 28.5Q123 73 84 156Q45 239 45 354Q45 469 84 552.5Q123 636 196.5 681Q270 726 372 726Q475 726 548.5 681Q622 636 661.5 552.5Q701 469 701 354Q701 239 661.5 156Q622 73 548.5 28.5Q475 -16 372 -16ZM372 75Q444 75 494.5 108.5Q545 142 572.5 204Q600 266 600 354Q600 442 572.5 504.5Q545 567 494.5 601Q444 635 372 635Q301 635 250.5 601Q200 567 173 504.5Q146 442 146 354Q146 266 173 204Q200 142 250.5 108.5Q301 75 372 75Z"/></g>
  <g transform="translate(681.54 342.90) scale(0.08 -0.08)"><path fill="#faf9f6" d="M89 0L89 710L219 710L558 108L558 710L655 710L655 0L520 0L186 589L186 0Z"/></g>
</svg>
