<svg xmlns="http://www.w3.org/2000/svg" viewBox="0 0 1046 363">
<defs><linearGradient id="ax" x1="0" y1="0" x2="1" y2="0"><stop offset="0" stop-color="#b45309"/><stop offset="1" stop-color="#8a3d08"/></linearGradient></defs>

  <g transform="translate(20.00 20.00) scale(0.31 0.31)"><path fill="#000000" d="M20 0L276 710L403 710L659 0L554 0L486 193L192 193L124 0ZM224 284L455 284L339 621Z"/></g>
  <g transform="translate(234.61 240.10) scale(0.31 -0.31)"><path fill="#000000" d="M14 0L249 356L16 710L131 710L311 432L489 710L601 710L369 358L605 0L491 0L309 282L127 0Z"/></g>
  <g transform="translate(427.93 240.10) scale(0.31 -0.31)"><path fill="#000000" d="M89 0L89 710L186 710L186 0Z"/></g>
  <g transform="translate(513.06 240.10) scale(0.31 -0.31)"><path fill="#000000" d="M372 -16Q270 -16 196.5 28.5Q123 73 84 156Q45 239 45 354Q45 469 84 552.5Q123 636 196.5 681Q270 726 372 726Q475 726 548.5 681Q622 636 661.5 552.5Q701 469 701 354Q701 239 661.5 156Q622 73 548.5 28.5Q475 -16 372 -16ZM372 75Q444 75 494.5 108.5Q545 142 572.5 204Q600 266 600 354Q600 442 572.5 504.5Q545 567 494.5 601Q444 635 372 635Q301 635 250.5 601Q200 567 173 504.5Q146 442 146 354Q146 266 173 204Q200 142 250.5 108.5Q301 75 372 75Z"/></g>
  <g transform="translate(751.85 240.10) scale(0.31 -0.31)"><path fill="#000000" d="M89 0L89 710L223 710L442 111L660 710L794 710L794 0L697 0L697 535L500 0L383 0L186 535L186 0Z"/></g>
  <g transform="translate(20.00 342.90) scale(0.08 -0.08)"><path fill="#000000" d="M86 0L86 710L547 710L547 611L137 611L194 670L194 344L137 395L529 395L529 299L137 299L194 350L194 0Z"/></g>
  <g transform="translate(91.58 342.90) scale(0.08 -0.08)"><path fill="#000000" d="M375 -16Q272 -16 198 28.5Q124 73 84 156Q44 239 44 354Q44 469 84 552.5Q124 636 198 681Q272 726 375 726Q479 726 553.5 681Q628 636 667.5 552.5Q707 469 707 354Q707 239 667.5 156Q628 73 553.5 28.5Q479 -16 375 -16ZM375 83Q444 83 493.5 115Q543 147 569 207.5Q595 268 595 354Q595 440 569 501Q543 562 493.5 594.5Q444 627 375 627Q307 627 258 594.5Q209 562 182.5 501Q156 440 156 354Q156 268 182.5 207.5Q209 147 258 115Q307 83 375 83Z"/></g>
  <g transform="translate(175.68 342.90) scale(0.08 -0.08)"><path fill="#000000" d="M347 -16Q263 -16 200.5 16.5Q138 49 104.5 109Q71 169 71 251L71 710L179 710L179 251Q179 170 223 126.5Q267 83 347 83Q427 83 471 126.5Q515 170 515 251L515 710L623 710L623 251Q623 169 589.5 109Q556 49 494 16.5Q432 -16 347 -16Z"/></g>
  <g transform="translate(256.38 342.90) scale(0.08 -0.08)"><path fill="#000000" d="M86 0L86 710L223 710L551 131L551 710L659 710L659 0L517 0L194 566L194 0Z"/></g>
  <g transform="translate(338.58 342.90) scale(0.08 -0.08)"><path fill="#000000" d="M86 0L86 710L314 710Q481 710 571 617.5Q661 525 661 354Q661 184 572.5 92Q484 0 320 0ZM194 99L314 99Q432 99 490.5 162.5Q549 226 549 354Q549 484 490.5 547.5Q432 611 314 611L194 611Z"/></g>
  <g transform="translate(415.79 342.90) scale(0.08 -0.08)"><path fill="#000000" d="M20 0L276 710L413 710L669 0L554 0L489 185L199 185L135 0ZM233 283L456 283L344 607Z"/></g>
  <g transform="translate(487.42 342.90) scale(0.08 -0.08)"><path fill="#000000" d="M230 0L230 611L12 611L12 710L556 710L556 611L338 611L338 0Z"/></g>
  <g transform="translate(554.77 342.90) scale(0.08 -0.08)"><path fill="#000000" d="M86 0L86 710L194 710L194 0Z"/></g>
  <g transform="translate(599.98 342.90) scale(0.08 -0.08)"><path fill="#000000" d="M375 -16Q272 -16 198 28.5Q124 73 84 156Q44 239 44 354Q44 469 84 552.5Q124 636 198 681Q272 726 375 726Q479 726 553.5 681Q628 636 667.5 552.5Q707 469 707 354Q707 239 667.5 156Q628 73 553.5 28.5Q479 -16 375 -16ZM375 83Q444 83 493.5 115Q543 147 569 207.5Q595 268 595 354Q595 440 569 501Q543 562 493.5 594.5Q444 627 375 627Q307 627 258 594.5Q209 562 182.5 501Q156 440 156 354Q156 268 182.5 207.5Q209 147 258 115Q307 83 375 83Z"/></g>
  <g transform="translate(684.91 342.90) scale(0.08 -0.08)"><path fill="#000000" d="M86 0L86 710L223 710L551 131L551 710L659 710L659 0L517 0L194 566L194 0Z"/></g>
</svg>
