<svg xmlns="http://www.w3.org/2000/svg" viewBox="0 0 1238 1381">
<rect width="1238" height="1381" fill="#faf9f6"/>
  <g transform="translate(40.00 280.10) scale(0.044 -0.044)"><path fill="#78716c" d="M301 -16Q183 -16 119 39.5Q55 95 50 183L139 189Q145 124 189.5 96Q234 68 301 68Q347 68 386 80.5Q425 93 449 121.5Q473 150 473 198Q473 269 426 302Q379 335 302 335L246 335L246 419L302 419Q365 419 406.5 444Q448 469 448 530Q448 585 412.5 613.5Q377 642 306 642Q236 642 200.5 615Q165 588 158 541L68 547Q78 627 139 676.5Q200 726 306 726Q378 726 430 702.5Q482 679 510 636Q538 593 538 534Q538 468 496.5 427.5Q455 387 374 372L374 390Q461 380 512 328Q563 276 563 198Q563 130 529.5 82Q496 34 437 9Q378 -16 301 -16Z"/></g>
  <g transform="translate(66.97 280.10) scale(0.044 -0.044)"><path fill="#78716c" d="M331 -16Q245 -16 182 29Q119 74 84.5 157Q50 240 50 354Q50 468 84.5 551.5Q119 635 182 680.5Q245 726 331 726Q418 726 481 680.5Q544 635 578.5 552Q613 469 613 354Q613 240 578.5 157Q544 74 481 29Q418 -16 331 -16ZM331 68Q423 68 473 142.5Q523 217 523 354Q523 446 500.5 510.5Q478 575 435.5 608.5Q393 642 331 642Q270 642 227.5 608.5Q185 575 162.5 510.5Q140 446 140 354Q140 217 190 142.5Q240 68 331 68Z"/></g>
  <g transform="translate(96.58 280.10) scale(0.044 -0.044)"><path fill="#78716c" d="M331 -16Q245 -16 182 29Q119 74 84.5 157Q50 240 50 354Q50 468 84.5 551.5Q119 635 182 680.5Q245 726 331 726Q418 726 481 680.5Q544 635 578.5 552Q613 469 613 354Q613 240 578.5 157Q544 74 481 29Q418 -16 331 -16ZM331 68Q423 68 473 142.5Q523 217 523 354Q523 446 500.5 510.5Q478 575 435.5 608.5Q393 642 331 642Q270 642 227.5 608.5Q185 575 162.5 510.5Q140 446 140 354Q140 217 190 142.5Q240 68 331 68Z"/></g>
  <g transform="translate(200.00 60.00) scale(0.31 0.31)"><path fill="#1c1917" d="M21 0L280 710L370 710L628 0L554 0L478 213L171 213L95 0ZM194 279L455 279L325 649Z"/></g>
  <g transform="translate(405.63 280.10) scale(0.31 -0.31)"><path fill="#1c1917" d="M17 0L258 357L20 710L101 710L302 410L502 710L582 710L344 357L587 0L506 0L301 304L96 0Z"/></g>
  <g transform="translate(593.91 280.10) scale(0.31 -0.31)"><path fill="#1c1917" d="M93 0L93 710L161 710L161 0Z"/></g>
  <g transform="translate(673.27 280.10) scale(0.31 -0.31)"><path fill="#1c1917" d="M365 -16Q266 -16 194.5 28.5Q123 73 85 156Q47 239 47 354Q47 469 85 552.5Q123 636 194.5 681Q266 726 365 726Q465 726 536 681Q607 636 645.5 552.5Q684 469 684 354Q684 239 645.5 156Q607 73 536 28.5Q465 -16 365 -16ZM365 51Q443 51 498 87Q553 123 583 191Q613 259 613 354Q613 449 583 517.5Q553 586 498 622.5Q443 659 365 659Q288 659 232.5 622.5Q177 586 147.5 517.5Q118 449 118 354Q118 259 147.5 191Q177 123 232.5 87Q288 51 365 51Z"/></g>
  <g transform="translate(908.66 280.10) scale(0.31 -0.31)"><path fill="#1c1917" d="M93 0L93 710L191 710L434 74L677 710L775 710L775 0L707 0L707 593L478 0L390 0L161 593L161 0Z"/></g>
  <g transform="translate(40.00 610.20) scale(0.044 -0.044)"><path fill="#78716c" d="M301 -16Q183 -16 119 39.5Q55 95 50 183L139 189Q145 124 189.5 96Q234 68 301 68Q347 68 386 80.5Q425 93 449 121.5Q473 150 473 198Q473 269 426 302Q379 335 302 335L246 335L246 419L302 419Q365 419 406.5 444Q448 469 448 530Q448 585 412.5 613.5Q377 642 306 642Q236 642 200.5 615Q165 588 158 541L68 547Q78 627 139 676.5Q200 726 306 726Q378 726 430 702.5Q482 679 510 636Q538 593 538 534Q538 468 496.5 427.5Q455 387 374 372L374 390Q461 380 512 328Q563 276 563 198Q563 130 529.5 82Q496 34 437 9Q378 -16 301 -16Z"/></g>
  <g transform="translate(66.97 610.20) scale(0.044 -0.044)"><path fill="#78716c" d="M312 -16Q237 -16 182.5 9Q128 34 96.5 79Q65 124 60 183L150 189Q158 129 201.5 98.5Q245 68 312 68Q387 68 431 110.5Q475 153 475 228Q475 278 455.5 314.5Q436 351 399 371Q362 391 310 391Q261 391 221 370Q181 349 164 311L72 311L119 710L517 710L517 626L198 626L166 364L150 380Q166 411 192.5 431.5Q219 452 253.5 462.5Q288 473 326 473Q397 473 451 441.5Q505 410 535 354.5Q565 299 565 228Q565 157 533 101.5Q501 46 444 15Q387 -16 312 -16Z"/></g>
  <g transform="translate(93.64 610.20) scale(0.044 -0.044)"><path fill="#78716c" d="M331 -16Q245 -16 182 29Q119 74 84.5 157Q50 240 50 354Q50 468 84.5 551.5Q119 635 182 680.5Q245 726 331 726Q418 726 481 680.5Q544 635 578.5 552Q613 469 613 354Q613 240 578.5 157Q544 74 481 29Q418 -16 331 -16ZM331 68Q423 68 473 142.5Q523 217 523 354Q523 446 500.5 510.5Q478 575 435.5 608.5Q393 642 331 642Q270 642 227.5 608.5Q185 575 162.5 510.5Q140 446 140 354Q140 217 190 142.5Q240 68 331 68Z"/></g>
  <g transform="translate(200.00 390.10) scale(0.31 0.31)"><path fill="#1c1917" d="M21 0L278 710L381 710L638 0L554 0L481 207L178 207L105 0ZM204 283L455 283L329 642Z"/></g>
  <g transform="translate(408.53 610.20) scale(0.31 -0.31)"><path fill="#1c1917" d="M16 0L253 356L19 710L110 710L303 417L494 710L584 710L350 358L589 0L497 0L302 297L106 0Z"/></g>
  <g transform="translate(597.21 610.20) scale(0.31 -0.31)"><path fill="#1c1917" d="M93 0L93 710L170 710L170 0Z"/></g>
  <g transform="translate(678.74 610.20) scale(0.31 -0.31)"><path fill="#1c1917" d="M367 -16Q267 -16 195 28.5Q123 73 84.5 156Q46 239 46 354Q46 469 84.5 552.5Q123 636 195 681Q267 726 367 726Q468 726 540 681Q612 636 650.5 552.5Q689 469 689 354Q689 239 650.5 156Q612 73 540 28.5Q468 -16 367 -16ZM367 59Q443 59 497 94.5Q551 130 579.5 196Q608 262 608 354Q608 446 579.5 512.5Q551 579 497 615Q443 651 367 651Q292 651 238 615Q184 579 155.5 512.5Q127 446 127 354Q127 262 155.5 196Q184 130 238 94.5Q292 59 367 59Z"/></g>
  <g transform="translate(915.01 610.20) scale(0.31 -0.31)"><path fill="#1c1917" d="M93 0L93 710L202 710L437 84L671 710L780 710L780 0L703 0L703 572L487 0L385 0L170 572L170 0Z"/></g>
  <g transform="translate(40.00 940.30) scale(0.044 -0.044)"><path fill="#78716c" d="M391 0L391 154L30 154L30 232L385 710L477 710L477 238L565 238L565 154L477 154L477 0ZM134 238L391 238L391 578Z"/></g>
  <g transform="translate(66.62 940.30) scale(0.044 -0.044)"><path fill="#78716c" d="M331 -16Q245 -16 182 29Q119 74 84.5 157Q50 240 50 354Q50 468 84.5 551.5Q119 635 182 680.5Q245 726 331 726Q418 726 481 680.5Q544 635 578.5 552Q613 469 613 354Q613 240 578.5 157Q544 74 481 29Q418 -16 331 -16ZM331 68Q423 68 473 142.5Q523 217 523 354Q523 446 500.5 510.5Q478 575 435.5 608.5Q393 642 331 642Q270 642 227.5 608.5Q185 575 162.5 510.5Q140 446 140 354Q140 217 190 142.5Q240 68 331 68Z"/></g>
  <g transform="translate(96.23 940.30) scale(0.044 -0.044)"><path fill="#78716c" d="M331 -16Q245 -16 182 29Q119 74 84.5 157Q50 240 50 354Q50 468 84.5 551.5Q119 635 182 680.5Q245 726 331 726Q418 726 481 680.5Q544 635 578.5 552Q613 469 613 354Q613 240 578.5 157Q544 74 481 29Q418 -16 331 -16ZM331 68Q423 68 473 142.5Q523 217 523 354Q523 446 500.5 510.5Q478 575 435.5 608.5Q393 642 331 642Q270 642 227.5 608.5Q185 575 162.5 510.5Q140 446 140 354Q140 217 190 142.5Q240 68 331 68Z"/></g>
  <g transform="translate(200.00 720.20) scale(0.31 0.31)"><path fill="#1c1917" d="M20 0L276 710L392 710L648 0L554 0L483 202L185 202L114 0ZM214 286L454 286L334 635Z"/></g>
  <g transform="translate(411.42 940.30) scale(0.31 -0.31)"><path fill="#1c1917" d="M15 0L248 356L17 710L119 710L304 424L487 710L587 710L356 358L591 0L489 0L302 290L115 0Z"/></g>
  <g transform="translate(600.52 940.30) scale(0.31 -0.31)"><path fill="#1c1917" d="M92 0L92 710L178 710L178 0Z"/></g>
  <g transform="translate(684.22 940.30) scale(0.31 -0.31)"><path fill="#1c1917" d="M369 -16Q268 -16 195.5 28.5Q123 73 84 156Q45 239 45 354Q45 469 84 552.5Q123 636 195.5 681Q268 726 369 726Q471 726 543.5 681Q616 636 655 552.5Q694 469 694 354Q694 239 655 156Q616 73 543.5 28.5Q471 -16 369 -16ZM369 68Q443 68 495.5 102Q548 136 576 200Q604 264 604 354Q604 444 576 508.5Q548 573 495.5 607.5Q443 642 369 642Q296 642 243.5 607.5Q191 573 163 508.5Q135 444 135 354Q135 264 163 200Q191 136 243.5 102Q296 68 369 68Z"/></g>
  <g transform="translate(921.37 940.30) scale(0.31 -0.31)"><path fill="#1c1917" d="M92 0L92 710L212 710L439 94L665 710L785 710L785 0L699 0L699 550L496 0L381 0L178 550L178 0Z"/></g>
  <g transform="translate(40.00 1270.40) scale(0.044 -0.044)"><path fill="#78716c" d="M391 0L391 154L30 154L30 232L385 710L477 710L477 238L565 238L565 154L477 154L477 0ZM134 238L391 238L391 578Z"/></g>
  <g transform="translate(67.06 1270.40) scale(0.044 -0.044)"><path fill="#78716c" d="M312 -16Q237 -16 182.5 9Q128 34 96.5 79Q65 124 60 183L150 189Q158 129 201.5 98.5Q245 68 312 68Q387 68 431 110.5Q475 153 475 228Q475 278 455.5 314.5Q436 351 399 371Q362 391 310 391Q261 391 221 370Q181 349 164 311L72 311L119 710L517 710L517 626L198 626L166 364L150 380Q166 411 192.5 431.5Q219 452 253.5 462.5Q288 473 326 473Q397 473 451 441.5Q505 410 535 354.5Q565 299 565 228Q565 157 533 101.5Q501 46 444 15Q387 -16 312 -16Z"/></g>
  <g transform="translate(93.72 1270.40) scale(0.044 -0.044)"><path fill="#78716c" d="M331 -16Q245 -16 182 29Q119 74 84.5 157Q50 240 50 354Q50 468 84.5 551.5Q119 635 182 680.5Q245 726 331 726Q418 726 481 680.5Q544 635 578.5 552Q613 469 613 354Q613 240 578.5 157Q544 74 481 29Q418 -16 331 -16ZM331 68Q423 68 473 142.5Q523 217 523 354Q523 446 500.5 510.5Q478 575 435.5 608.5Q393 642 331 642Q270 642 227.5 608.5Q185 575 162.5 510.5Q140 446 140 354Q140 217 190 142.5Q240 68 331 68Z"/></g>
  <g transform="translate(200.00 1050.30) scale(0.31 0.31)"><path fill="#1c1917" d="M20 0L276 710L403 710L659 0L554 0L486 193L192 193L124 0ZM224 284L455 284L339 621Z"/></g>
  <g transform="translate(414.61 1270.40) scale(0.31 -0.31)"><path fill="#1c1917" d="M14 0L249 356L16 710L131 710L311 432L489 710L601 710L369 358L605 0L491 0L309 282L127 0Z"/></g>
  <g transform="translate(607.93 1270.40) scale(0.31 -0.31)"><path fill="#1c1917" d="M89 0L89 710L186 710L186 0Z"/></g>
  <g transform="translate(693.06 1270.40) scale(0.31 -0.31)"><path fill="#1c1917" d="M372 -16Q270 -16 196.5 28.5Q123 73 84 156Q45 239 45 354Q45 469 84 552.5Q123 636 196.5 681Q270 726 372 726Q475 726 548.5 681Q622 636 661.5 552.5Q701 469 701 354Q701 239 661.5 156Q622 73 548.5 28.5Q475 -16 372 -16ZM372 75Q444 75 494.5 108.5Q545 142 572.5 204Q600 266 600 354Q600 442 572.5 504.5Q545 567 494.5 601Q444 635 372 635Q301 635 250.5 601Q200 567 173 504.5Q146 442 146 354Q146 266 173 204Q200 142 250.5 108.5Q301 75 372 75Z"/></g>
  <g transform="translate(931.85 1270.40) scale(0.31 -0.31)"><path fill="#1c1917" d="M89 0L89 710L223 710L442 111L660 710L794 710L794 0L697 0L697 535L500 0L383 0L186 535L186 0Z"/></g>
</svg>
