<svg xmlns="http://www.w3.org/2000/svg" viewBox="0 0 1034 404">
<defs><linearGradient id="ax" x1="0" y1="0" x2="1" y2="0"><stop offset="0" stop-color="#b45309"/><stop offset="1" stop-color="#8a3d08"/></linearGradient></defs>

  <g transform="translate(20.00 20.00) scale(0.31 0.31)"><path fill="#b45309" d="M20 0L276 710L392 710L648 0L554 0L483 202L185 202L114 0ZM214 286L454 286L334 635Z"/></g>
  <g transform="translate(231.42 240.10) scale(0.31 -0.31)"><path fill="#b45309" d="M15 0L248 356L17 710L119 710L304 424L487 710L587 710L356 358L591 0L489 0L302 290L115 0Z"/></g>
  <g transform="translate(420.52 240.10) scale(0.31 -0.31)"><path fill="#b45309" d="M92 0L92 710L178 710L178 0Z"/></g>
  <g transform="translate(504.22 240.10) scale(0.31 -0.31)"><path fill="#b45309" d="M369 -16Q268 -16 195.5 28.5Q123 73 84 156Q45 239 45 354Q45 469 84 552.5Q123 636 195.5 681Q268 726 369 726Q471 726 543.5 681Q616 636 655 552.5Q694 469 694 354Q694 239 655 156Q616 73 543.5 28.5Q471 -16 369 -16ZM369 68Q443 68 495.5 102Q548 136 576 200Q604 264 604 354Q604 444 576 508.5Q548 573 495.5 607.5Q443 642 369 642Q296 642 243.5 607.5Q191 573 163 508.5Q135 444 135 354Q135 264 163 200Q191 136 243.5 102Q296 68 369 68Z"/></g>
  <g transform="translate(741.37 240.10) scale(0.31 -0.31)"><path fill="#b45309" d="M92 0L92 710L212 710L439 94L665 710L785 710L785 0L699 0L699 550L496 0L381 0L178 550L178 0Z"/></g>
  <g transform="translate(20.00 383.86) scale(0.13769373665677764 -0.13769373665677764)"><path fill="#b45309" d="M89 0L89 710L542 710L542 619L136 619L186 670L186 344L136 392L524 392L524 302L136 302L186 350L186 0Z"/></g>
  <g transform="translate(115.34 383.86) scale(0.13769373665677764 -0.13769373665677764)"><path fill="#b45309" d="M372 -16Q270 -16 196.5 28.5Q123 73 84 156Q45 239 45 354Q45 469 84 552.5Q123 636 196.5 681Q270 726 372 726Q475 726 548.5 681Q622 636 661.5 552.5Q701 469 701 354Q701 239 661.5 156Q622 73 548.5 28.5Q475 -16 372 -16ZM372 75Q444 75 494.5 108.5Q545 142 572.5 204Q600 266 600 354Q600 442 572.5 504.5Q545 567 494.5 601Q444 635 372 635Q301 635 250.5 601Q200 567 173 504.5Q146 442 146 354Q146 266 173 204Q200 142 250.5 108.5Q301 75 372 75Z"/></g>
  <g transform="translate(231.70 383.86) scale(0.13769373665677764 -0.13769373665677764)"><path fill="#b45309" d="M346 -16Q263 -16 201.5 16Q140 48 107 108Q74 168 74 249L74 710L171 710L171 249Q171 166 216.5 120.5Q262 75 346 75Q429 75 474.5 120.5Q520 166 520 249L520 710L617 710L617 249Q617 168 584 108Q551 48 490 16Q429 -16 346 -16Z"/></g>
  <g transform="translate(342.74 383.86) scale(0.13769373665677764 -0.13769373665677764)"><path fill="#b45309" d="M89 0L89 710L219 710L558 108L558 710L655 710L655 0L520 0L186 589L186 0Z"/></g>
  <g transform="translate(456.37 383.86) scale(0.13769373665677764 -0.13769373665677764)"><path fill="#b45309" d="M89 0L89 710L313 710Q479 710 568 617.5Q657 525 657 354Q657 184 569.5 92Q482 0 319 0ZM186 91L313 91Q434 91 495 156.5Q556 222 556 354Q556 488 495 553.5Q434 619 313 619L186 619Z"/></g>
  <g transform="translate(561.65 383.86) scale(0.13769373665677764 -0.13769373665677764)"><path fill="#b45309" d="M20 0L276 710L403 710L659 0L554 0L486 193L192 193L124 0ZM224 284L455 284L339 621Z"/></g>
  <g transform="translate(656.20 383.86) scale(0.13769373665677764 -0.13769373665677764)"><path fill="#b45309" d="M231 0L231 619L12 619L12 710L548 710L548 619L329 619L329 0Z"/></g>
  <g transform="translate(743.21 383.86) scale(0.13769373665677764 -0.13769373665677764)"><path fill="#b45309" d="M89 0L89 710L186 710L186 0Z"/></g>
  <g transform="translate(792.86 383.86) scale(0.13769373665677764 -0.13769373665677764)"><path fill="#b45309" d="M372 -16Q270 -16 196.5 28.5Q123 73 84 156Q45 239 45 354Q45 469 84 552.5Q123 636 196.5 681Q270 726 372 726Q475 726 548.5 681Q622 636 661.5 552.5Q701 469 701 354Q701 239 661.5 156Q622 73 548.5 28.5Q475 -16 372 -16ZM372 75Q444 75 494.5 108.5Q545 142 572.5 204Q600 266 600 354Q600 442 572.5 504.5Q545 567 494.5 601Q444 635 372 635Q301 635 250.5 601Q200 567 173 504.5Q146 442 146 354Q146 266 173 204Q200 142 250.5 108.5Q301 75 372 75Z"/></g>
  <g transform="translate(910.77 383.86) scale(0.13769373665677764 -0.13769373665677764)"><path fill="#b45309" d="M89 0L89 710L219 710L558 108L558 710L655 710L655 0L520 0L186 589L186 0Z"/></g>
</svg>
