<svg xmlns="http://www.w3.org/2000/svg" viewBox="0 0 1034 363">
<defs><linearGradient id="ax" x1="0" y1="0" x2="1" y2="0"><stop offset="0" stop-color="#b45309"/><stop offset="1" stop-color="#8a3d08"/></linearGradient></defs>

  <g transform="translate(20.00 20.00) scale(0.31 0.31)"><path fill="#1c1917" d="M20 0L276 710L392 710L648 0L554 0L483 202L185 202L114 0ZM214 286L454 286L334 635Z"/></g>
  <g transform="translate(231.42 240.10) scale(0.31 -0.31)"><path fill="#1c1917" d="M15 0L248 356L17 710L119 710L304 424L487 710L587 710L356 358L591 0L489 0L302 290L115 0Z"/></g>
  <g transform="translate(420.52 240.10) scale(0.31 -0.31)"><path fill="#1c1917" d="M92 0L92 710L178 710L178 0Z"/></g>
  <g transform="translate(504.22 240.10) scale(0.31 -0.31)"><path fill="#1c1917" d="M369 -16Q268 -16 195.5 28.5Q123 73 84 156Q45 239 45 354Q45 469 84 552.5Q123 636 195.5 681Q268 726 369 726Q471 726 543.5 681Q616 636 655 552.5Q694 469 694 354Q694 239 655 156Q616 73 543.5 28.5Q471 -16 369 -16ZM369 68Q443 68 495.5 102Q548 136 576 200Q604 264 604 354Q604 444 576 508.5Q548 573 495.5 607.5Q443 642 369 642Q296 642 243.5 607.5Q191 573 163 508.5Q135 444 135 354Q135 264 163 200Q191 136 243.5 102Q296 68 369 68Z"/></g>
  <g transform="translate(741.37 240.10) scale(0.31 -0.31)"><path fill="#1c1917" d="M92 0L92 710L212 710L439 94L665 710L785 710L785 0L699 0L699 550L496 0L381 0L178 550L178 0Z"/></g>
  <g transform="translate(226.35 342.90) scale(0.08 -0.08)"><path fill="#1c1917" d="M86 0L86 710L547 710L547 611L137 611L194 670L194 344L137 395L529 395L529 299L137 299L194 350L194 0Z"/></g>
  <g transform="translate(281.93 342.90) scale(0.08 -0.08)"><path fill="#1c1917" d="M375 -16Q272 -16 198 28.5Q124 73 84 156Q44 239 44 354Q44 469 84 552.5Q124 636 198 681Q272 726 375 726Q479 726 553.5 681Q628 636 667.5 552.5Q707 469 707 354Q707 239 667.5 156Q628 73 553.5 28.5Q479 -16 375 -16ZM375 83Q444 83 493.5 115Q543 147 569 207.5Q595 268 595 354Q595 440 569 501Q543 562 493.5 594.5Q444 627 375 627Q307 627 258 594.5Q209 562 182.5 501Q156 440 156 354Q156 268 182.5 207.5Q209 147 258 115Q307 83 375 83Z"/></g>
  <g transform="translate(350.03 342.90) scale(0.08 -0.08)"><path fill="#1c1917" d="M347 -16Q263 -16 200.5 16.5Q138 49 104.5 109Q71 169 71 251L71 710L179 710L179 251Q179 170 223 126.5Q267 83 347 83Q427 83 471 126.5Q515 170 515 251L515 710L623 710L623 251Q623 169 589.5 109Q556 49 494 16.5Q432 -16 347 -16Z"/></g>
  <g transform="translate(414.73 342.90) scale(0.08 -0.08)"><path fill="#1c1917" d="M86 0L86 710L223 710L551 131L551 710L659 710L659 0L517 0L194 566L194 0Z"/></g>
  <g transform="translate(480.92 342.90) scale(0.08 -0.08)"><path fill="#1c1917" d="M86 0L86 710L314 710Q481 710 571 617.5Q661 525 661 354Q661 184 572.5 92Q484 0 320 0ZM194 99L314 99Q432 99 490.5 162.5Q549 226 549 354Q549 484 490.5 547.5Q432 611 314 611L194 611Z"/></g>
  <g transform="translate(542.14 342.90) scale(0.08 -0.08)"><path fill="#1c1917" d="M20 0L276 710L413 710L669 0L554 0L489 185L199 185L135 0ZM233 283L456 283L344 607Z"/></g>
  <g transform="translate(597.77 342.90) scale(0.08 -0.08)"><path fill="#1c1917" d="M230 0L230 611L12 611L12 710L556 710L556 611L338 611L338 0Z"/></g>
  <g transform="translate(649.12 342.90) scale(0.08 -0.08)"><path fill="#1c1917" d="M86 0L86 710L194 710L194 0Z"/></g>
  <g transform="translate(678.33 342.90) scale(0.08 -0.08)"><path fill="#1c1917" d="M375 -16Q272 -16 198 28.5Q124 73 84 156Q44 239 44 354Q44 469 84 552.5Q124 636 198 681Q272 726 375 726Q479 726 553.5 681Q628 636 667.5 552.5Q707 469 707 354Q707 239 667.5 156Q628 73 553.5 28.5Q479 -16 375 -16ZM375 83Q444 83 493.5 115Q543 147 569 207.5Q595 268 595 354Q595 440 569 501Q543 562 493.5 594.5Q444 627 375 627Q307 627 258 594.5Q209 562 182.5 501Q156 440 156 354Q156 268 182.5 207.5Q209 147 258 115Q307 83 375 83Z"/></g>
  <g transform="translate(747.26 342.90) scale(0.08 -0.08)"><path fill="#1c1917" d="M86 0L86 710L223 710L551 131L551 710L659 710L659 0L517 0L194 566L194 0Z"/></g>
</svg>
