<svg xmlns="http://www.w3.org/2000/svg" viewBox="0 0 1034 261">
<defs><linearGradient id="ax" x1="0" y1="0" x2="1" y2="0"><stop offset="0" stop-color="#b45309"/><stop offset="1" stop-color="#8a3d08"/></linearGradient></defs>

  <g transform="translate(20.00 20.00) scale(0.31 0.31)"><path fill="#1c1917" d="M20 0L276 710L392 710L648 0L554 0L483 202L185 202L114 0ZM214 286L454 286L334 635Z"/></g>
  <g transform="translate(231.42 240.10) scale(0.31 -0.31)"><path fill="#1c1917" d="M15 0L248 356L17 710L119 710L304 424L487 710L587 710L356 358L591 0L489 0L302 290L115 0Z"/></g>
  <g transform="translate(420.52 240.10) scale(0.31 -0.31)"><path fill="#1c1917" d="M92 0L92 710L178 710L178 0Z"/></g>
  <g transform="translate(504.22 240.10) scale(0.31 -0.31)"><path fill="#1c1917" d="M369 -16Q268 -16 195.5 28.5Q123 73 84 156Q45 239 45 354Q45 469 84 552.5Q123 636 195.5 681Q268 726 369 726Q471 726 543.5 681Q616 636 655 552.5Q694 469 694 354Q694 239 655 156Q616 73 543.5 28.5Q471 -16 369 -16ZM369 68Q443 68 495.5 102Q548 136 576 200Q604 264 604 354Q604 444 576 508.5Q548 573 495.5 607.5Q443 642 369 642Q296 642 243.5 607.5Q191 573 163 508.5Q135 444 135 354Q135 264 163 200Q191 136 243.5 102Q296 68 369 68Z"/></g>
  <g transform="translate(741.37 240.10) scale(0.31 -0.31)"><path fill="#1c1917" d="M92 0L92 710L212 710L439 94L665 710L785 710L785 0L699 0L699 550L496 0L381 0L178 550L178 0Z"/></g>
</svg>
