<svg xmlns="http://www.w3.org/2000/svg" viewBox="0 0 1018 261">
<defs><linearGradient id="ax" x1="0" y1="0" x2="1" y2="0"><stop offset="0" stop-color="#b45309"/><stop offset="1" stop-color="#8a3d08"/></linearGradient></defs>

  <g transform="translate(20.00 20.00) scale(0.31 0.31)"><path fill="#000000" d="M21 0L280 710L370 710L628 0L554 0L478 213L171 213L95 0ZM194 279L455 279L325 649Z"/></g>
  <g transform="translate(225.63 240.10) scale(0.31 -0.31)"><path fill="#000000" d="M17 0L258 357L20 710L101 710L302 410L502 710L582 710L344 357L587 0L506 0L301 304L96 0Z"/></g>
  <g transform="translate(413.91 240.10) scale(0.31 -0.31)"><path fill="#000000" d="M93 0L93 710L161 710L161 0Z"/></g>
  <g transform="translate(493.27 240.10) scale(0.31 -0.31)"><path fill="#000000" d="M365 -16Q266 -16 194.5 28.5Q123 73 85 156Q47 239 47 354Q47 469 85 552.5Q123 636 194.5 681Q266 726 365 726Q465 726 536 681Q607 636 645.5 552.5Q684 469 684 354Q684 239 645.5 156Q607 73 536 28.5Q465 -16 365 -16ZM365 51Q443 51 498 87Q553 123 583 191Q613 259 613 354Q613 449 583 517.5Q553 586 498 622.5Q443 659 365 659Q288 659 232.5 622.5Q177 586 147.5 517.5Q118 449 118 354Q118 259 147.5 191Q177 123 232.5 87Q288 51 365 51Z"/></g>
  <g transform="translate(728.66 240.10) scale(0.31 -0.31)"><path fill="#000000" d="M93 0L93 710L191 710L434 74L677 710L775 710L775 0L707 0L707 593L478 0L390 0L161 593L161 0Z"/></g>
</svg>
