<svg xmlns="http://www.w3.org/2000/svg" viewBox="0 0 1046 261">
<defs><linearGradient id="ax" x1="0" y1="0" x2="1" y2="0"><stop offset="0" stop-color="#b45309"/><stop offset="1" stop-color="#8a3d08"/></linearGradient></defs>

  <g transform="translate(20.00 20.00) scale(0.31 0.31)"><path fill="#ffffff" d="M20 0L276 710L403 710L659 0L554 0L486 193L192 193L124 0ZM224 284L455 284L339 621Z"/></g>
  <g transform="translate(234.61 240.10) scale(0.31 -0.31)"><path fill="#ffffff" d="M14 0L249 356L16 710L131 710L311 432L489 710L601 710L369 358L605 0L491 0L309 282L127 0Z"/></g>
  <g transform="translate(427.93 240.10) scale(0.31 -0.31)"><path fill="#ffffff" d="M89 0L89 710L186 710L186 0Z"/></g>
  <g transform="translate(513.06 240.10) scale(0.31 -0.31)"><path fill="#ffffff" d="M372 -16Q270 -16 196.5 28.5Q123 73 84 156Q45 239 45 354Q45 469 84 552.5Q123 636 196.5 681Q270 726 372 726Q475 726 548.5 681Q622 636 661.5 552.5Q701 469 701 354Q701 239 661.5 156Q622 73 548.5 28.5Q475 -16 372 -16ZM372 75Q444 75 494.5 108.5Q545 142 572.5 204Q600 266 600 354Q600 442 572.5 504.5Q545 567 494.5 601Q444 635 372 635Q301 635 250.5 601Q200 567 173 504.5Q146 442 146 354Q146 266 173 204Q200 142 250.5 108.5Q301 75 372 75Z"/></g>
  <g transform="translate(751.85 240.10) scale(0.31 -0.31)"><path fill="#ffffff" d="M89 0L89 710L223 710L442 111L660 710L794 710L794 0L697 0L697 535L500 0L383 0L186 535L186 0Z"/></g>
</svg>
