<svg xmlns="http://www.w3.org/2000/svg" viewBox="0 0 1018 363">
<defs><linearGradient id="ax" x1="0" y1="0" x2="1" y2="0"><stop offset="0" stop-color="#b45309"/><stop offset="1" stop-color="#8a3d08"/></linearGradient></defs>

  <g transform="translate(20.00 20.00) scale(0.31 0.31)"><path fill="#faf9f6" d="M21 0L280 710L370 710L628 0L554 0L478 213L171 213L95 0ZM194 279L455 279L325 649Z"/></g>
  <g transform="translate(225.63 240.10) scale(0.31 -0.31)"><path fill="#faf9f6" d="M17 0L258 357L20 710L101 710L302 410L502 710L582 710L344 357L587 0L506 0L301 304L96 0Z"/></g>
  <g transform="translate(413.91 240.10) scale(0.31 -0.31)"><path fill="#faf9f6" d="M93 0L93 710L161 710L161 0Z"/></g>
  <g transform="translate(493.27 240.10) scale(0.31 -0.31)"><path fill="#faf9f6" d="M365 -16Q266 -16 194.5 28.5Q123 73 85 156Q47 239 47 354Q47 469 85 552.5Q123 636 194.5 681Q266 726 365 726Q465 726 536 681Q607 636 645.5 552.5Q684 469 684 354Q684 239 645.5 156Q607 73 536 28.5Q465 -16 365 -16ZM365 51Q443 51 498 87Q553 123 583 191Q613 259 613 354Q613 449 583 517.5Q553 586 498 622.5Q443 659 365 659Q288 659 232.5 622.5Q177 586 147.5 517.5Q118 449 118 354Q118 259 147.5 191Q177 123 232.5 87Q288 51 365 51Z"/></g>
  <g transform="translate(728.66 240.10) scale(0.31 -0.31)"><path fill="#faf9f6" d="M93 0L93 710L191 710L434 74L677 710L775 710L775 0L707 0L707 593L478 0L390 0L161 593L161 0Z"/></g>
  <g transform="translate(200.47 342.90) scale(0.08 -0.08)"><path fill="#faf9f6" d="M92 0L92 710L538 710L538 626L135 626L178 670L178 344L135 388L520 388L520 306L135 306L178 350L178 0Z"/></g>
  <g transform="translate(260.47 342.90) scale(0.08 -0.08)"><path fill="#faf9f6" d="M369 -16Q268 -16 195.5 28.5Q123 73 84 156Q45 239 45 354Q45 469 84 552.5Q123 636 195.5 681Q268 726 369 726Q471 726 543.5 681Q616 636 655 552.5Q694 469 694 354Q694 239 655 156Q616 73 543.5 28.5Q471 -16 369 -16ZM369 68Q443 68 495.5 102Q548 136 576 200Q604 264 604 354Q604 444 576 508.5Q548 573 495.5 607.5Q443 642 369 642Q296 642 243.5 607.5Q191 573 163 508.5Q135 444 135 354Q135 264 163 200Q191 136 243.5 102Q296 68 369 68Z"/></g>
  <g transform="translate(332.39 342.90) scale(0.08 -0.08)"><path fill="#faf9f6" d="M345 -16Q263 -16 202.5 16Q142 48 109.5 107.5Q77 167 77 248L77 710L163 710L163 248Q163 162 210.5 115Q258 68 345 68Q431 68 478.5 115Q526 162 526 248L526 710L612 710L612 248Q612 167 579.5 107.5Q547 48 487 16Q427 -16 345 -16Z"/></g>
  <g transform="translate(401.51 342.90) scale(0.08 -0.08)"><path fill="#faf9f6" d="M92 0L92 710L214 710L565 86L565 710L651 710L651 0L523 0L178 612L178 0Z"/></g>
  <g transform="translate(472.15 342.90) scale(0.08 -0.08)"><path fill="#faf9f6" d="M92 0L92 710L312 710Q476 710 564.5 617.5Q653 525 653 354Q653 184 566 92Q479 0 318 0ZM178 84L312 84Q437 84 500 151.5Q563 219 563 354Q563 491 500 558.5Q437 626 312 626L178 626Z"/></g>
  <g transform="translate(538.07 342.90) scale(0.08 -0.08)"><path fill="#faf9f6" d="M20 0L276 710L392 710L648 0L554 0L483 202L185 202L114 0ZM214 286L454 286L334 635Z"/></g>
  <g transform="translate(597.11 342.90) scale(0.08 -0.08)"><path fill="#faf9f6" d="M233 0L233 626L12 626L12 710L540 710L540 626L319 626L319 0Z"/></g>
  <g transform="translate(651.67 342.90) scale(0.08 -0.08)"><path fill="#faf9f6" d="M92 0L92 710L178 710L178 0Z"/></g>
  <g transform="translate(684.95 342.90) scale(0.08 -0.08)"><path fill="#faf9f6" d="M369 -16Q268 -16 195.5 28.5Q123 73 84 156Q45 239 45 354Q45 469 84 552.5Q123 636 195.5 681Q268 726 369 726Q471 726 543.5 681Q616 636 655 552.5Q694 469 694 354Q694 239 655 156Q616 73 543.5 28.5Q471 -16 369 -16ZM369 68Q443 68 495.5 102Q548 136 576 200Q604 264 604 354Q604 444 576 508.5Q548 573 495.5 607.5Q443 642 369 642Q296 642 243.5 607.5Q191 573 163 508.5Q135 444 135 354Q135 264 163 200Q191 136 243.5 102Q296 68 369 68Z"/></g>
  <g transform="translate(757.83 342.90) scale(0.08 -0.08)"><path fill="#faf9f6" d="M92 0L92 710L214 710L565 86L565 710L651 710L651 0L523 0L178 612L178 0Z"/></g>
</svg>
