<svg xmlns="http://www.w3.org/2000/svg" viewBox="0 0 1018 374">
<defs><linearGradient id="ax" x1="0" y1="0" x2="1" y2="0"><stop offset="0" stop-color="#b45309"/><stop offset="1" stop-color="#8a3d08"/></linearGradient></defs>

  <g transform="translate(20.00 20.00) scale(0.31 0.31)"><path fill="#1c1917" d="M21 0L280 710L370 710L628 0L554 0L478 213L171 213L95 0ZM194 279L455 279L325 649Z"/></g>
  <g transform="translate(225.63 240.10) scale(0.31 -0.31)"><path fill="#1c1917" d="M17 0L258 357L20 710L101 710L302 410L502 710L582 710L344 357L587 0L506 0L301 304L96 0Z"/></g>
  <g transform="translate(413.91 240.10) scale(0.31 -0.31)"><path fill="#1c1917" d="M93 0L93 710L161 710L161 0Z"/></g>
  <g transform="translate(493.27 240.10) scale(0.31 -0.31)"><path fill="#1c1917" d="M365 -16Q266 -16 194.5 28.5Q123 73 85 156Q47 239 47 354Q47 469 85 552.5Q123 636 194.5 681Q266 726 365 726Q465 726 536 681Q607 636 645.5 552.5Q684 469 684 354Q684 239 645.5 156Q607 73 536 28.5Q465 -16 365 -16ZM365 51Q443 51 498 87Q553 123 583 191Q613 259 613 354Q613 449 583 517.5Q553 586 498 622.5Q443 659 365 659Q288 659 232.5 622.5Q177 586 147.5 517.5Q118 449 118 354Q118 259 147.5 191Q177 123 232.5 87Q288 51 365 51Z"/></g>
  <g transform="translate(728.66 240.10) scale(0.31 -0.31)"><path fill="#1c1917" d="M93 0L93 710L191 710L434 74L677 710L775 710L775 0L707 0L707 593L478 0L390 0L161 593L161 0Z"/></g>
  <g transform="translate(20.00 353.55) scale(0.095 -0.095)"><path fill="#1c1917" d="M93 0L93 710L534 710L534 635L133 635L170 673L170 344L133 385L516 385L516 311L133 311L170 350L170 0Z"/></g>
  <g transform="translate(118.56 353.55) scale(0.095 -0.095)"><path fill="#1c1917" d="M367 -16Q267 -16 195 28.5Q123 73 84.5 156Q46 239 46 354Q46 469 84.5 552.5Q123 636 195 681Q267 726 367 726Q468 726 540 681Q612 636 650.5 552.5Q689 469 689 354Q689 239 650.5 156Q612 73 540 28.5Q468 -16 367 -16ZM367 59Q443 59 497 94.5Q551 130 579.5 196Q608 262 608 354Q608 446 579.5 512.5Q551 579 497 615Q443 651 367 651Q292 651 238 615Q184 579 155.5 512.5Q127 446 127 354Q127 262 155.5 196Q184 130 238 94.5Q292 59 367 59Z"/></g>
  <g transform="translate(231.35 353.55) scale(0.095 -0.095)"><path fill="#1c1917" d="M343 -16Q261 -16 201.5 16Q142 48 110 107.5Q78 167 78 248L78 710L155 710L155 248Q155 158 204 108.5Q253 59 343 59Q432 59 481 108.5Q530 158 530 248L530 710L607 710L607 248Q607 167 575 107.5Q543 48 483.5 16Q424 -16 343 -16Z"/></g>
  <g transform="translate(340.79 353.55) scale(0.095 -0.095)"><path fill="#1c1917" d="M93 0L93 710L202 710L568 77L568 710L645 710L645 0L530 0L170 623L170 0Z"/></g>
  <g transform="translate(452.11 353.55) scale(0.095 -0.095)"><path fill="#1c1917" d="M93 0L93 710L310 710Q473 710 561 617.5Q649 525 649 354Q649 184 562.5 92Q476 0 316 0ZM170 75L310 75Q437 75 502.5 145.5Q568 216 568 354Q568 494 502.5 564.5Q437 635 310 635L170 635Z"/></g>
  <g transform="translate(557.82 353.55) scale(0.095 -0.095)"><path fill="#1c1917" d="M21 0L278 710L381 710L638 0L554 0L481 207L178 207L105 0ZM204 283L455 283L329 642Z"/></g>
  <g transform="translate(654.52 353.55) scale(0.095 -0.095)"><path fill="#1c1917" d="M237 0L237 635L12 635L12 710L538 710L538 635L314 635L314 0Z"/></g>
  <g transform="translate(746.96 353.55) scale(0.095 -0.095)"><path fill="#1c1917" d="M93 0L93 710L170 710L170 0Z"/></g>
  <g transform="translate(813.60 353.55) scale(0.095 -0.095)"><path fill="#1c1917" d="M367 -16Q267 -16 195 28.5Q123 73 84.5 156Q46 239 46 354Q46 469 84.5 552.5Q123 636 195 681Q267 726 367 726Q468 726 540 681Q612 636 650.5 552.5Q689 469 689 354Q689 239 650.5 156Q612 73 540 28.5Q468 -16 367 -16ZM367 59Q443 59 497 94.5Q551 130 579.5 196Q608 262 608 354Q608 446 579.5 512.5Q551 579 497 615Q443 651 367 651Q292 651 238 615Q184 579 155.5 512.5Q127 446 127 354Q127 262 155.5 196Q184 130 238 94.5Q292 59 367 59Z"/></g>
  <g transform="translate(927.66 353.55) scale(0.095 -0.095)"><path fill="#1c1917" d="M93 0L93 710L202 710L568 77L568 710L645 710L645 0L530 0L170 623L170 0Z"/></g>
</svg>
