<svg xmlns="http://www.w3.org/2000/svg" viewBox="0 0 1026 363">
<defs><linearGradient id="ax" x1="0" y1="0" x2="1" y2="0"><stop offset="0" stop-color="#b45309"/><stop offset="1" stop-color="#8a3d08"/></linearGradient></defs>

  <g transform="translate(20.00 20.00) scale(0.31 0.31)"><path fill="url(#ax)" d="M21 0L278 710L381 710L638 0L554 0L481 207L178 207L105 0ZM204 283L455 283L329 642Z"/></g>
  <g transform="translate(228.53 240.10) scale(0.31 -0.31)"><path fill="url(#ax)" d="M16 0L253 356L19 710L110 710L303 417L494 710L584 710L350 358L589 0L497 0L302 297L106 0Z"/></g>
  <g transform="translate(417.21 240.10) scale(0.31 -0.31)"><path fill="url(#ax)" d="M93 0L93 710L170 710L170 0Z"/></g>
  <g transform="translate(498.74 240.10) scale(0.31 -0.31)"><path fill="url(#ax)" d="M367 -16Q267 -16 195 28.5Q123 73 84.5 156Q46 239 46 354Q46 469 84.5 552.5Q123 636 195 681Q267 726 367 726Q468 726 540 681Q612 636 650.5 552.5Q689 469 689 354Q689 239 650.5 156Q612 73 540 28.5Q468 -16 367 -16ZM367 59Q443 59 497 94.5Q551 130 579.5 196Q608 262 608 354Q608 446 579.5 512.5Q551 579 497 615Q443 651 367 651Q292 651 238 615Q184 579 155.5 512.5Q127 446 127 354Q127 262 155.5 196Q184 130 238 94.5Q292 59 367 59Z"/></g>
  <g transform="translate(735.01 240.10) scale(0.31 -0.31)"><path fill="url(#ax)" d="M93 0L93 710L202 710L437 84L671 710L780 710L780 0L703 0L703 572L487 0L385 0L170 572L170 0Z"/></g>
  <g transform="translate(43.06 342.90) scale(0.08 -0.08)"><path fill="url(#ax)" d="M92 0L92 710L538 710L538 626L135 626L178 670L178 344L135 388L520 388L520 306L135 306L178 350L178 0Z"/></g>
  <g transform="translate(104.66 342.90) scale(0.08 -0.08)"><path fill="url(#ax)" d="M369 -16Q268 -16 195.5 28.5Q123 73 84 156Q45 239 45 354Q45 469 84 552.5Q123 636 195.5 681Q268 726 369 726Q471 726 543.5 681Q616 636 655 552.5Q694 469 694 354Q694 239 655 156Q616 73 543.5 28.5Q471 -16 369 -16ZM369 68Q443 68 495.5 102Q548 136 576 200Q604 264 604 354Q604 444 576 508.5Q548 573 495.5 607.5Q443 642 369 642Q296 642 243.5 607.5Q191 573 163 508.5Q135 444 135 354Q135 264 163 200Q191 136 243.5 102Q296 68 369 68Z"/></g>
  <g transform="translate(178.18 342.90) scale(0.08 -0.08)"><path fill="url(#ax)" d="M345 -16Q263 -16 202.5 16Q142 48 109.5 107.5Q77 167 77 248L77 710L163 710L163 248Q163 162 210.5 115Q258 68 345 68Q431 68 478.5 115Q526 162 526 248L526 710L612 710L612 248Q612 167 579.5 107.5Q547 48 487 16Q427 -16 345 -16Z"/></g>
  <g transform="translate(248.90 342.90) scale(0.08 -0.08)"><path fill="url(#ax)" d="M92 0L92 710L214 710L565 86L565 710L651 710L651 0L523 0L178 612L178 0Z"/></g>
  <g transform="translate(321.14 342.90) scale(0.08 -0.08)"><path fill="url(#ax)" d="M92 0L92 710L312 710Q476 710 564.5 617.5Q653 525 653 354Q653 184 566 92Q479 0 318 0ZM178 84L312 84Q437 84 500 151.5Q563 219 563 354Q563 491 500 558.5Q437 626 312 626L178 626Z"/></g>
  <g transform="translate(388.66 342.90) scale(0.08 -0.08)"><path fill="url(#ax)" d="M20 0L276 710L392 710L648 0L554 0L483 202L185 202L114 0ZM214 286L454 286L334 635Z"/></g>
  <g transform="translate(449.30 342.90) scale(0.08 -0.08)"><path fill="url(#ax)" d="M233 0L233 626L12 626L12 710L540 710L540 626L319 626L319 0Z"/></g>
  <g transform="translate(505.46 342.90) scale(0.08 -0.08)"><path fill="url(#ax)" d="M92 0L92 710L178 710L178 0Z"/></g>
  <g transform="translate(540.34 342.90) scale(0.08 -0.08)"><path fill="url(#ax)" d="M369 -16Q268 -16 195.5 28.5Q123 73 84 156Q45 239 45 354Q45 469 84 552.5Q123 636 195.5 681Q268 726 369 726Q471 726 543.5 681Q616 636 655 552.5Q694 469 694 354Q694 239 655 156Q616 73 543.5 28.5Q471 -16 369 -16ZM369 68Q443 68 495.5 102Q548 136 576 200Q604 264 604 354Q604 444 576 508.5Q548 573 495.5 607.5Q443 642 369 642Q296 642 243.5 607.5Q191 573 163 508.5Q135 444 135 354Q135 264 163 200Q191 136 243.5 102Q296 68 369 68Z"/></g>
  <g transform="translate(614.82 342.90) scale(0.08 -0.08)"><path fill="url(#ax)" d="M92 0L92 710L214 710L565 86L565 710L651 710L651 0L523 0L178 612L178 0Z"/></g>
</svg>
