<svg xmlns="http://www.w3.org/2000/svg" viewBox="0 0 1026 363">
<defs><linearGradient id="ax" x1="0" y1="0" x2="1" y2="0"><stop offset="0" stop-color="#b45309"/><stop offset="1" stop-color="#8a3d08"/></linearGradient></defs>

  <g transform="translate(20.00 20.00) scale(0.31 0.31)"><path fill="url(#ax)" d="M21 0L278 710L381 710L638 0L554 0L481 207L178 207L105 0ZM204 283L455 283L329 642Z"/></g>
  <g transform="translate(228.53 240.10) scale(0.31 -0.31)"><path fill="url(#ax)" d="M16 0L253 356L19 710L110 710L303 417L494 710L584 710L350 358L589 0L497 0L302 297L106 0Z"/></g>
  <g transform="translate(417.21 240.10) scale(0.31 -0.31)"><path fill="url(#ax)" d="M93 0L93 710L170 710L170 0Z"/></g>
  <g transform="translate(498.74 240.10) scale(0.31 -0.31)"><path fill="url(#ax)" d="M367 -16Q267 -16 195 28.5Q123 73 84.5 156Q46 239 46 354Q46 469 84.5 552.5Q123 636 195 681Q267 726 367 726Q468 726 540 681Q612 636 650.5 552.5Q689 469 689 354Q689 239 650.5 156Q612 73 540 28.5Q468 -16 367 -16ZM367 59Q443 59 497 94.5Q551 130 579.5 196Q608 262 608 354Q608 446 579.5 512.5Q551 579 497 615Q443 651 367 651Q292 651 238 615Q184 579 155.5 512.5Q127 446 127 354Q127 262 155.5 196Q184 130 238 94.5Q292 59 367 59Z"/></g>
  <g transform="translate(735.01 240.10) scale(0.31 -0.31)"><path fill="url(#ax)" d="M93 0L93 710L202 710L437 84L671 710L780 710L780 0L703 0L703 572L487 0L385 0L170 572L170 0Z"/></g>
  <g transform="translate(58.12 342.90) scale(0.08 -0.08)"><path fill="url(#ax)" d="M83 0L83 710L551 710L551 604L138 604L202 670L202 344L138 399L533 399L533 295L138 295L202 350L202 0Z"/></g>
  <g transform="translate(120.30 342.90) scale(0.08 -0.08)"><path fill="url(#ax)" d="M378 -16Q274 -16 199 28.5Q124 73 84 156Q44 239 44 354Q44 469 84 552.5Q124 636 199 681Q274 726 378 726Q484 726 558.5 681Q633 636 673.5 552.5Q714 469 714 354Q714 239 673.5 156Q633 73 558.5 28.5Q484 -16 378 -16ZM378 90Q445 90 492.5 121.5Q540 153 565.5 212Q591 271 591 354Q591 437 565.5 496.5Q540 556 492.5 588Q445 620 378 620Q312 620 264.5 588Q217 556 192 496.5Q167 437 167 354Q167 271 192 212Q217 153 264.5 121.5Q312 90 378 90Z"/></g>
  <g transform="translate(195.28 342.90) scale(0.08 -0.08)"><path fill="url(#ax)" d="M348 -16Q263 -16 199.5 16.5Q136 49 102 109.5Q68 170 68 252L68 710L187 710L187 252Q187 175 229 132.5Q271 90 348 90Q425 90 467 132.5Q509 175 509 252L509 710L628 710L628 252Q628 170 594 109.5Q560 49 497 16.5Q434 -16 348 -16Z"/></g>
  <g transform="translate(266.58 342.90) scale(0.08 -0.08)"><path fill="url(#ax)" d="M83 0L83 710L228 710L545 153L545 710L664 710L664 0L515 0L202 542L202 0Z"/></g>
  <g transform="translate(339.35 342.90) scale(0.08 -0.08)"><path fill="url(#ax)" d="M83 0L83 710L315 710Q484 710 574.5 617.5Q665 525 665 354Q665 184 576 92Q487 0 321 0ZM202 106L315 106Q429 106 485.5 167.5Q542 229 542 354Q542 481 485.5 542.5Q429 604 315 604L202 604Z"/></g>
  <g transform="translate(407.01 342.90) scale(0.08 -0.08)"><path fill="url(#ax)" d="M19 0L275 710L424 710L680 0L554 0L492 176L207 176L145 0ZM243 281L456 281L350 593Z"/></g>
  <g transform="translate(469.74 342.90) scale(0.08 -0.08)"><path fill="url(#ax)" d="M228 0L228 604L11 604L11 710L564 710L564 604L348 604L348 0Z"/></g>
  <g transform="translate(528.28 342.90) scale(0.08 -0.08)"><path fill="url(#ax)" d="M83 0L83 710L202 710L202 0Z"/></g>
  <g transform="translate(564.26 342.90) scale(0.08 -0.08)"><path fill="url(#ax)" d="M378 -16Q274 -16 199 28.5Q124 73 84 156Q44 239 44 354Q44 469 84 552.5Q124 636 199 681Q274 726 378 726Q484 726 558.5 681Q633 636 673.5 552.5Q714 469 714 354Q714 239 673.5 156Q633 73 558.5 28.5Q484 -16 378 -16ZM378 90Q445 90 492.5 121.5Q540 153 565.5 212Q591 271 591 354Q591 437 565.5 496.5Q540 556 492.5 588Q445 620 378 620Q312 620 264.5 588Q217 556 192 496.5Q167 437 167 354Q167 271 192 212Q217 153 264.5 121.5Q312 90 378 90Z"/></g>
  <g transform="translate(640.01 342.90) scale(0.08 -0.08)"><path fill="url(#ax)" d="M83 0L83 710L228 710L545 153L545 710L664 710L664 0L515 0L202 542L202 0Z"/></g>
</svg>
