<svg xmlns="http://www.w3.org/2000/svg" viewBox="0 0 1186 421">
<defs><linearGradient id="ax" x1="0" y1="0" x2="1" y2="0"><stop offset="0" stop-color="#b45309"/><stop offset="1" stop-color="#8a3d08"/></linearGradient></defs>
<rect width="1186" height="421" fill="#92400e"/>
<g transform="translate(80 80)">
    <g transform="translate(20.00 20.00) scale(0.31 0.31)"><path fill="#faf9f6" d="M21 0L278 710L381 710L638 0L554 0L481 207L178 207L105 0ZM204 283L455 283L329 642Z"/></g>
  <g transform="translate(228.53 240.10) scale(0.31 -0.31)"><path fill="#faf9f6" d="M16 0L253 356L19 710L110 710L303 417L494 710L584 710L350 358L589 0L497 0L302 297L106 0Z"/></g>
  <g transform="translate(417.21 240.10) scale(0.31 -0.31)"><path fill="#faf9f6" d="M93 0L93 710L170 710L170 0Z"/></g>
  <g transform="translate(498.74 240.10) scale(0.31 -0.31)"><path fill="#faf9f6" d="M367 -16Q267 -16 195 28.5Q123 73 84.5 156Q46 239 46 354Q46 469 84.5 552.5Q123 636 195 681Q267 726 367 726Q468 726 540 681Q612 636 650.5 552.5Q689 469 689 354Q689 239 650.5 156Q612 73 540 28.5Q468 -16 367 -16ZM367 59Q443 59 497 94.5Q551 130 579.5 196Q608 262 608 354Q608 446 579.5 512.5Q551 579 497 615Q443 651 367 651Q292 651 238 615Q184 579 155.5 512.5Q127 446 127 354Q127 262 155.5 196Q184 130 238 94.5Q292 59 367 59Z"/></g>
  <g transform="translate(735.01 240.10) scale(0.31 -0.31)"><path fill="#faf9f6" d="M93 0L93 710L202 710L437 84L671 710L780 710L780 0L703 0L703 572L487 0L385 0L170 572L170 0Z"/></g>

</g>
</svg>
