<svg xmlns="http://www.w3.org/2000/svg" viewBox="0 0 1046 363">
<defs><linearGradient id="ax" x1="0" y1="0" x2="1" y2="0"><stop offset="0" stop-color="#b45309"/><stop offset="1" stop-color="#8a3d08"/></linearGradient></defs>

  <g transform="translate(20.00 20.00) scale(0.31 0.31)"><path fill="url(#ax)" d="M20 0L276 710L403 710L659 0L554 0L486 193L192 193L124 0ZM224 284L455 284L339 621Z"/></g>
  <g transform="translate(234.61 240.10) scale(0.31 -0.31)"><path fill="url(#ax)" d="M14 0L249 356L16 710L131 710L311 432L489 710L601 710L369 358L605 0L491 0L309 282L127 0Z"/></g>
  <g transform="translate(427.93 240.10) scale(0.31 -0.31)"><path fill="url(#ax)" d="M89 0L89 710L186 710L186 0Z"/></g>
  <g transform="translate(513.06 240.10) scale(0.31 -0.31)"><path fill="url(#ax)" d="M372 -16Q270 -16 196.5 28.5Q123 73 84 156Q45 239 45 354Q45 469 84 552.5Q123 636 196.5 681Q270 726 372 726Q475 726 548.5 681Q622 636 661.5 552.5Q701 469 701 354Q701 239 661.5 156Q622 73 548.5 28.5Q475 -16 372 -16ZM372 75Q444 75 494.5 108.5Q545 142 572.5 204Q600 266 600 354Q600 442 572.5 504.5Q545 567 494.5 601Q444 635 372 635Q301 635 250.5 601Q200 567 173 504.5Q146 442 146 354Q146 266 173 204Q200 142 250.5 108.5Q301 75 372 75Z"/></g>
  <g transform="translate(751.85 240.10) scale(0.31 -0.31)"><path fill="url(#ax)" d="M89 0L89 710L223 710L442 111L660 710L794 710L794 0L697 0L697 535L500 0L383 0L186 535L186 0Z"/></g>
  <g transform="translate(43.61 342.90) scale(0.08 -0.08)"><path fill="url(#ax)" d="M80 0L80 710L555 710L555 597L139 597L210 670L210 344L139 403L537 403L537 291L139 291L210 350L210 0Z"/></g>
  <g transform="translate(141.05 342.90) scale(0.08 -0.08)"><path fill="url(#ax)" d="M381 -16Q276 -16 200 28.5Q124 73 83.5 156Q43 239 43 354Q43 469 83.5 552.5Q124 636 200 681Q276 726 381 726Q488 726 563.5 681Q639 636 679.5 552.5Q720 469 720 354Q720 239 679.5 156Q639 73 563.5 28.5Q488 -16 381 -16ZM381 97Q446 97 491.5 127.5Q537 158 561.5 215.5Q586 273 586 354Q586 435 561.5 493Q537 551 491.5 582Q446 613 381 613Q318 613 272 582Q226 551 201.5 493Q177 435 177 354Q177 273 201.5 215.5Q226 158 272 127.5Q318 97 381 97Z"/></g>
  <g transform="translate(251.60 342.90) scale(0.08 -0.08)"><path fill="url(#ax)" d="M349 -16Q263 -16 198.5 17Q134 50 99.5 110.5Q65 171 65 254L65 710L195 710L195 254Q195 179 235 138Q275 97 349 97Q423 97 463.5 138Q504 179 504 254L504 710L634 710L634 254Q634 171 599 110.5Q564 50 500.5 17Q437 -16 349 -16Z"/></g>
  <g transform="translate(358.16 342.90) scale(0.08 -0.08)"><path fill="url(#ax)" d="M80 0L80 710L232 710L538 176L538 710L668 710L668 0L512 0L210 519L210 0Z"/></g>
  <g transform="translate(466.18 342.90) scale(0.08 -0.08)"><path fill="url(#ax)" d="M80 0L80 710L316 710Q486 710 577.5 617.5Q669 525 669 354Q669 184 579 92Q489 0 322 0ZM210 113L316 113Q427 113 481 173Q535 233 535 354Q535 477 481 537Q427 597 316 597L210 597Z"/></g>
  <g transform="translate(568.97 342.90) scale(0.08 -0.08)"><path fill="url(#ax)" d="M19 0L275 710L434 710L690 0L554 0L495 168L214 168L155 0ZM252 279L457 279L355 579Z"/></g>
  <g transform="translate(667.47 342.90) scale(0.08 -0.08)"><path fill="url(#ax)" d="M227 0L227 597L11 597L11 710L572 710L572 597L357 597L357 0Z"/></g>
  <g transform="translate(761.87 342.90) scale(0.08 -0.08)"><path fill="url(#ax)" d="M80 0L80 710L210 710L210 0Z"/></g>
  <g transform="translate(833.30 342.90) scale(0.08 -0.08)"><path fill="url(#ax)" d="M381 -16Q276 -16 200 28.5Q124 73 83.5 156Q43 239 43 354Q43 469 83.5 552.5Q124 636 200 681Q276 726 381 726Q488 726 563.5 681Q639 636 679.5 552.5Q720 469 720 354Q720 239 679.5 156Q639 73 563.5 28.5Q488 -16 381 -16ZM381 97Q446 97 491.5 127.5Q537 158 561.5 215.5Q586 273 586 354Q586 435 561.5 493Q537 551 491.5 582Q446 613 381 613Q318 613 272 582Q226 551 201.5 493Q177 435 177 354Q177 273 201.5 215.5Q226 158 272 127.5Q318 97 381 97Z"/></g>
  <g transform="translate(944.55 342.90) scale(0.08 -0.08)"><path fill="url(#ax)" d="M80 0L80 710L232 710L538 176L538 710L668 710L668 0L512 0L210 519L210 0Z"/></g>
</svg>
