<svg xmlns="http://www.w3.org/2000/svg" viewBox="0 0 1018 363">
<defs><linearGradient id="ax" x1="0" y1="0" x2="1" y2="0"><stop offset="0" stop-color="#b45309"/><stop offset="1" stop-color="#8a3d08"/></linearGradient></defs>

  <g transform="translate(20.00 20.00) scale(0.31 0.31)"><path fill="#faf9f6" d="M21 0L280 710L370 710L628 0L554 0L478 213L171 213L95 0ZM194 279L455 279L325 649Z"/></g>
  <g transform="translate(225.63 240.10) scale(0.31 -0.31)"><path fill="#faf9f6" d="M17 0L258 357L20 710L101 710L302 410L502 710L582 710L344 357L587 0L506 0L301 304L96 0Z"/></g>
  <g transform="translate(413.91 240.10) scale(0.31 -0.31)"><path fill="#faf9f6" d="M93 0L93 710L161 710L161 0Z"/></g>
  <g transform="translate(493.27 240.10) scale(0.31 -0.31)"><path fill="#faf9f6" d="M365 -16Q266 -16 194.5 28.5Q123 73 85 156Q47 239 47 354Q47 469 85 552.5Q123 636 194.5 681Q266 726 365 726Q465 726 536 681Q607 636 645.5 552.5Q684 469 684 354Q684 239 645.5 156Q607 73 536 28.5Q465 -16 365 -16ZM365 51Q443 51 498 87Q553 123 583 191Q613 259 613 354Q613 449 583 517.5Q553 586 498 622.5Q443 659 365 659Q288 659 232.5 622.5Q177 586 147.5 517.5Q118 449 118 354Q118 259 147.5 191Q177 123 232.5 87Q288 51 365 51Z"/></g>
  <g transform="translate(728.66 240.10) scale(0.31 -0.31)"><path fill="#faf9f6" d="M93 0L93 710L191 710L434 74L677 710L775 710L775 0L707 0L707 593L478 0L390 0L161 593L161 0Z"/></g>
  <g transform="translate(43.48 342.90) scale(0.08 -0.08)"><path fill="#faf9f6" d="M89 0L89 710L542 710L542 619L136 619L186 670L186 344L136 392L524 392L524 302L136 302L186 350L186 0Z"/></g>
  <g transform="translate(138.37 342.90) scale(0.08 -0.08)"><path fill="#faf9f6" d="M372 -16Q270 -16 196.5 28.5Q123 73 84 156Q45 239 45 354Q45 469 84 552.5Q123 636 196.5 681Q270 726 372 726Q475 726 548.5 681Q622 636 661.5 552.5Q701 469 701 354Q701 239 661.5 156Q622 73 548.5 28.5Q475 -16 372 -16ZM372 75Q444 75 494.5 108.5Q545 142 572.5 204Q600 266 600 354Q600 442 572.5 504.5Q545 567 494.5 601Q444 635 372 635Q301 635 250.5 601Q200 567 173 504.5Q146 442 146 354Q146 266 173 204Q200 142 250.5 108.5Q301 75 372 75Z"/></g>
  <g transform="translate(245.48 342.90) scale(0.08 -0.08)"><path fill="#faf9f6" d="M346 -16Q263 -16 201.5 16Q140 48 107 108Q74 168 74 249L74 710L171 710L171 249Q171 166 216.5 120.5Q262 75 346 75Q429 75 474.5 120.5Q520 166 520 249L520 710L617 710L617 249Q617 168 584 108Q551 48 490 16Q429 -16 346 -16Z"/></g>
  <g transform="translate(349.49 342.90) scale(0.08 -0.08)"><path fill="#faf9f6" d="M89 0L89 710L219 710L558 108L558 710L655 710L655 0L520 0L186 589L186 0Z"/></g>
  <g transform="translate(455.00 342.90) scale(0.08 -0.08)"><path fill="#faf9f6" d="M89 0L89 710L313 710Q479 710 568 617.5Q657 525 657 354Q657 184 569.5 92Q482 0 319 0ZM186 91L313 91Q434 91 495 156.5Q556 222 556 354Q556 488 495 553.5Q434 619 313 619L186 619Z"/></g>
  <g transform="translate(555.67 342.90) scale(0.08 -0.08)"><path fill="#faf9f6" d="M20 0L276 710L403 710L659 0L554 0L486 193L192 193L124 0ZM224 284L455 284L339 621Z"/></g>
  <g transform="translate(650.11 342.90) scale(0.08 -0.08)"><path fill="#faf9f6" d="M231 0L231 619L12 619L12 710L548 710L548 619L329 619L329 0Z"/></g>
  <g transform="translate(740.16 342.90) scale(0.08 -0.08)"><path fill="#faf9f6" d="M89 0L89 710L186 710L186 0Z"/></g>
  <g transform="translate(808.51 342.90) scale(0.08 -0.08)"><path fill="#faf9f6" d="M372 -16Q270 -16 196.5 28.5Q123 73 84 156Q45 239 45 354Q45 469 84 552.5Q123 636 196.5 681Q270 726 372 726Q475 726 548.5 681Q622 636 661.5 552.5Q701 469 701 354Q701 239 661.5 156Q622 73 548.5 28.5Q475 -16 372 -16ZM372 75Q444 75 494.5 108.5Q545 142 572.5 204Q600 266 600 354Q600 442 572.5 504.5Q545 567 494.5 601Q444 635 372 635Q301 635 250.5 601Q200 567 173 504.5Q146 442 146 354Q146 266 173 204Q200 142 250.5 108.5Q301 75 372 75Z"/></g>
  <g transform="translate(916.51 342.90) scale(0.08 -0.08)"><path fill="#faf9f6" d="M89 0L89 710L219 710L558 108L558 710L655 710L655 0L520 0L186 589L186 0Z"/></g>
</svg>
