<svg xmlns="http://www.w3.org/2000/svg" viewBox="0 0 1034 363">
<defs><linearGradient id="ax" x1="0" y1="0" x2="1" y2="0"><stop offset="0" stop-color="#b45309"/><stop offset="1" stop-color="#8a3d08"/></linearGradient></defs>

  <g transform="translate(20.00 20.00) scale(0.31 0.31)"><path fill="#ffffff" d="M20 0L276 710L392 710L648 0L554 0L483 202L185 202L114 0ZM214 286L454 286L334 635Z"/></g>
  <g transform="translate(231.42 240.10) scale(0.31 -0.31)"><path fill="#ffffff" d="M15 0L248 356L17 710L119 710L304 424L487 710L587 710L356 358L591 0L489 0L302 290L115 0Z"/></g>
  <g transform="translate(420.52 240.10) scale(0.31 -0.31)"><path fill="#ffffff" d="M92 0L92 710L178 710L178 0Z"/></g>
  <g transform="translate(504.22 240.10) scale(0.31 -0.31)"><path fill="#ffffff" d="M369 -16Q268 -16 195.5 28.5Q123 73 84 156Q45 239 45 354Q45 469 84 552.5Q123 636 195.5 681Q268 726 369 726Q471 726 543.5 681Q616 636 655 552.5Q694 469 694 354Q694 239 655 156Q616 73 543.5 28.5Q471 -16 369 -16ZM369 68Q443 68 495.5 102Q548 136 576 200Q604 264 604 354Q604 444 576 508.5Q548 573 495.5 607.5Q443 642 369 642Q296 642 243.5 607.5Q191 573 163 508.5Q135 444 135 354Q135 264 163 200Q191 136 243.5 102Q296 68 369 68Z"/></g>
  <g transform="translate(741.37 240.10) scale(0.31 -0.31)"><path fill="#ffffff" d="M92 0L92 710L212 710L439 94L665 710L785 710L785 0L699 0L699 550L496 0L381 0L178 550L178 0Z"/></g>
  <g transform="translate(43.37 342.90) scale(0.08 -0.08)"><path fill="#ffffff" d="M83 0L83 710L551 710L551 604L138 604L202 670L202 344L138 399L533 399L533 295L138 295L202 350L202 0Z"/></g>
  <g transform="translate(139.58 342.90) scale(0.08 -0.08)"><path fill="#ffffff" d="M378 -16Q274 -16 199 28.5Q124 73 84 156Q44 239 44 354Q44 469 84 552.5Q124 636 199 681Q274 726 378 726Q484 726 558.5 681Q633 636 673.5 552.5Q714 469 714 354Q714 239 673.5 156Q633 73 558.5 28.5Q484 -16 378 -16ZM378 90Q445 90 492.5 121.5Q540 153 565.5 212Q591 271 591 354Q591 437 565.5 496.5Q540 556 492.5 588Q445 620 378 620Q312 620 264.5 588Q217 556 192 496.5Q167 437 167 354Q167 271 192 212Q217 153 264.5 121.5Q312 90 378 90Z"/></g>
  <g transform="translate(248.60 342.90) scale(0.08 -0.08)"><path fill="#ffffff" d="M348 -16Q263 -16 199.5 16.5Q136 49 102 109.5Q68 170 68 252L68 710L187 710L187 252Q187 175 229 132.5Q271 90 348 90Q425 90 467 132.5Q509 175 509 252L509 710L628 710L628 252Q628 170 594 109.5Q560 49 497 16.5Q434 -16 348 -16Z"/></g>
  <g transform="translate(353.94 342.90) scale(0.08 -0.08)"><path fill="#ffffff" d="M83 0L83 710L228 710L545 153L545 710L664 710L664 0L515 0L202 542L202 0Z"/></g>
  <g transform="translate(460.74 342.90) scale(0.08 -0.08)"><path fill="#ffffff" d="M83 0L83 710L315 710Q484 710 574.5 617.5Q665 525 665 354Q665 184 576 92Q487 0 321 0ZM202 106L315 106Q429 106 485.5 167.5Q542 229 542 354Q542 481 485.5 542.5Q429 604 315 604L202 604Z"/></g>
  <g transform="translate(562.45 342.90) scale(0.08 -0.08)"><path fill="#ffffff" d="M19 0L275 710L424 710L680 0L554 0L492 176L207 176L145 0ZM243 281L456 281L350 593Z"/></g>
  <g transform="translate(659.21 342.90) scale(0.08 -0.08)"><path fill="#ffffff" d="M228 0L228 604L11 604L11 710L564 710L564 604L348 604L348 0Z"/></g>
  <g transform="translate(751.79 342.90) scale(0.08 -0.08)"><path fill="#ffffff" d="M83 0L83 710L202 710L202 0Z"/></g>
  <g transform="translate(821.81 342.90) scale(0.08 -0.08)"><path fill="#ffffff" d="M378 -16Q274 -16 199 28.5Q124 73 84 156Q44 239 44 354Q44 469 84 552.5Q124 636 199 681Q274 726 378 726Q484 726 558.5 681Q633 636 673.5 552.5Q714 469 714 354Q714 239 673.5 156Q633 73 558.5 28.5Q484 -16 378 -16ZM378 90Q445 90 492.5 121.5Q540 153 565.5 212Q591 271 591 354Q591 437 565.5 496.5Q540 556 492.5 588Q445 620 378 620Q312 620 264.5 588Q217 556 192 496.5Q167 437 167 354Q167 271 192 212Q217 153 264.5 121.5Q312 90 378 90Z"/></g>
  <g transform="translate(931.60 342.90) scale(0.08 -0.08)"><path fill="#ffffff" d="M83 0L83 710L228 710L545 153L545 710L664 710L664 0L515 0L202 542L202 0Z"/></g>
</svg>
